<svg width="59" height="122" viewBox="0 0 59 122" fill="none" xmlns="http://www.w3.org/2000/svg">
<rect x="3" width="12" height="12" fill="url(#paint0_linear_89_283)"/>
<rect x="25" width="12" height="12" fill="white"/>
<rect x="47" width="12" height="12" fill="white"/>
<g clip-path="url(#clip0_89_283)">
<path d="M9.75 106.25V104.75C9.75 104.551 9.67098 104.36 9.53033 104.22C9.38967 104.079 9.19891 104 9 104C8.80108 104 8.61032 104.079 8.46967 104.22C8.32901 104.36 8.25 104.551 8.25 104.75V106.25C6.8581 106.252 5.52366 106.805 4.53944 107.789C3.55522 108.774 3.00159 110.108 3 111.5V116C3 117.591 3.63214 119.117 4.75736 120.243C5.88258 121.368 7.4087 122 9 122C10.5913 122 12.1174 121.368 13.2426 120.243C14.3679 119.117 15 117.591 15 116V111.5C14.9984 110.108 14.4448 108.774 13.4606 107.789C12.4763 106.805 11.1419 106.252 9.75 106.25ZM13.5 116C13.5 117.193 13.0259 118.338 12.182 119.182C11.3381 120.026 10.1935 120.5 9 120.5C7.80652 120.5 6.66193 120.026 5.81802 119.182C4.9741 118.338 4.5 117.193 4.5 116V111.5C4.50119 110.506 4.89666 109.553 5.59966 108.85C6.30267 108.147 7.2558 107.751 8.25 107.75H9.75C10.7442 107.751 11.6973 108.147 12.4003 108.85C13.1033 109.553 13.4988 110.506 13.5 111.5V116Z" fill="white"/>
<path d="M9 109.25C8.80109 109.25 8.61032 109.329 8.46967 109.47C8.32902 109.61 8.25 109.801 8.25 110V111.5C8.25 111.699 8.32902 111.89 8.46967 112.03C8.61032 112.171 8.80109 112.25 9 112.25C9.19891 112.25 9.38968 112.171 9.53033 112.03C9.67098 111.89 9.75 111.699 9.75 111.5V110C9.75 109.801 9.67098 109.61 9.53033 109.47C9.38968 109.329 9.19891 109.25 9 109.25Z" fill="white"/>
</g>
<path d="M9 99V67" stroke="white"/>
<defs>
<linearGradient id="paint0_linear_89_283" x1="-9.50001" y1="-6.50001" x2="10.8377" y2="-15.6368" gradientUnits="userSpaceOnUse">
<stop stop-color="#5E3928"/>
<stop offset="0.911458" stop-color="#E4A16F"/>
</linearGradient>
<clipPath id="clip0_89_283">
<rect width="18" height="18" fill="white" transform="translate(0 104)"/>
</clipPath>
</defs>
</svg>
